<svg xmlns="http://www.w3.org/2000/svg" width="160" height="120" viewBox="0 0 42.33 31.75">
  <path d="m26.04 5.11-.02-1.73a8 8 0 0 0-.12-1.57c-.1-.55-.88-.4-.78.15.1.47.11.95.1 1.43l.03 1.76c.03.56.82.52.8-.04z" style="fill:#64311d;fill-opacity:1;stroke:#fff;stroke-width:.371999;stroke-opacity:1"/>
  <path d="M25.66 5.25a7.2 7.2 0 0 0-.69-1.18l-.25-.34c-.52-.59-1.07-1.14-1.62-1.7-.24-.23-.48-.47-.7-.71l-.5-.53c-.39-.41-.97.13-.6.54l.52.54.71.73c.53.53 1.06 1.05 1.56 1.62l.23.3c.24.34.45.7.63 1.09.25.5.96.14.71-.36zM27 4.37c.26-.48.43-1 .6-1.51.2-.6.43-1.18.63-1.77.18-.53-.57-.8-.75-.26-.2.6-.43 1.18-.63 1.77-.15.46-.3.92-.53 1.34-.3.48.37.9.67.43ZM26.35 22.66l-.59.95-.32.5c-.09.14-.19.27-.3.4-.36.42.24.94.6.51a4 4 0 0 0 .36-.48c.31-.47.6-.95.9-1.42.32-.46-.33-.92-.65-.46zM27.26 23.15c.14 1.13.2 2.27.24 3.4l.06 2.32c0 .57.8.56.8 0l-.07-2.35a40.6 40.6 0 0 0-.24-3.45c-.06-.56-.85-.48-.8.08zM28.1 22.74c.15.69.46 1.33.76 1.97.15.3.3.6.48.89l.05.06c.3.47.97.03.66-.44l-.04-.06c-.17-.25-.3-.53-.43-.8a9.72 9.72 0 0 1-.69-1.7c-.05-.57-.84-.48-.79.08z" style="fill:#64311d;fill-opacity:1;stroke:#fff;stroke-width:.371999;stroke-opacity:1"/>
  <circle cx="21.28" cy="5.05" r=".74" style="fill:#64311d;fill-opacity:1;stroke:#fea;stroke-width:.529167;stroke-dasharray:none;stroke-opacity:1"/>
  <circle cx="19.35" cy="4.41" r=".74" style="fill:#64311d;fill-opacity:1;stroke:#fea;stroke-width:.529167;stroke-dasharray:none;stroke-opacity:1"/>
  <circle cx="20.47" cy="4.34" r=".74" style="fill:#64311d;fill-opacity:1;stroke:#fea;stroke-width:.529167;stroke-dasharray:none;stroke-opacity:1"/>
  <ellipse cx="10.87" cy="21.9" rx="2.42" ry="1.86" style="fill:#64311d;fill-opacity:1;stroke:#fea;stroke-width:.52916667;stroke-dasharray:none;stroke-opacity:1"/>
  <path d="M15.06 17.2c-.32-.2-.58-.39-.94-.55a7.38 7.38 0 0 0-.84-.34 9.14 9.14 0 0 0-2.2-.4c-.38-.03-.78-.01-1.17-.02-.46.06-.92.1-1.38.18a10.6 10.6 0 0 0-5.01 2.34c-.36.32-.65.7-.98 1.06-.24.45-.53.87-.72 1.35a5.53 5.53 0 0 0-.35 2.83c.11.9.48 1.83.88 2.63.19.37.42.7.62 1.06.49.74 1.01 1.45 1.61 2.1l.42.4c2.01 1.97 4.78-.87 2.78-2.83l-.22-.21a12 12 0 0 1-1.18-1.49c-.38-.61-.45-.69-.74-1.33-.08-.18-.3-.72-.3-.95-.01-.34.1-.64.2-.96.13-.17.23-.36.38-.5a6.6 6.6 0 0 1 2.27-1.34c.62-.2 1.09-.26 1.71-.37.25 0 .5-.02.76 0 .5 0 1.1.08 1.58.28.14.06.32.17.45.25 2.26 1.67 4.62-1.52 2.37-3.2z" style="fill:#64311d;fill-opacity:1;stroke:#fea;stroke-width:.529167;stroke-dasharray:none;stroke-opacity:1"/>
  <ellipse cx="13.32" cy="-16.79" rx="4.19" ry="2.12" style="fill:#64311d;fill-opacity:1;stroke:#fff;stroke-width:.272375;stroke-opacity:0" transform="matrix(.82 -.57 -.42 -.9 0 0)"/>
  <ellipse cx="-25.63" cy="-6.15" rx="4.19" ry="2.12" style="fill:#64311d;fill-opacity:1;stroke:#fff;stroke-width:.272375;stroke-opacity:0" transform="matrix(-.82 -.57 .42 -.9 0 0)"/>
  <ellipse cx="-24.35" cy="22.56" rx="9.11" ry="4.34" style="fill:#64311d;fill-opacity:1;stroke:#fea;stroke-width:.53003117;stroke-opacity:1;stroke-dasharray:none" transform="matrix(-.85 .53 .46 .89 0 0)"/>
  <ellipse cx="42.64" cy="-13.53" rx="7.47" ry="4.37" style="fill:#64311d;fill-opacity:1;stroke:#fea;stroke-width:.55646223;stroke-opacity:1;stroke-dasharray:none" transform="matrix(.72 .7 -.32 .95 0 0)"/>
  <ellipse cx="15.73" cy="13.73" rx="9.58" ry="7.16" style="fill:#64311d;fill-opacity:1;stroke:#fea;stroke-width:.529167;stroke-dasharray:none;stroke-opacity:1"/>
  <circle cx="21.46" cy="22.19" r=".74" style="fill:#fea;fill-opacity:1;stroke:#fea;stroke-width:.529167;stroke-dasharray:none;stroke-opacity:1"/>
  <ellipse cx="28.79" cy="13.54" rx="8.28" ry="9.97" style="fill:#91311d;fill-opacity:1;stroke:#fea;stroke-width:.529167;stroke-dasharray:none;stroke-opacity:1"/>
  <circle cx="1.74" cy="12.56" r=".01" style="fill:#64311d;fill-opacity:1;stroke:#fff;stroke-width:.264583"/>
  <path d="M7.97 9.58a2.07 4.22 51.62 0 0-2.99 1.15 2.07 4.22 51.62 0 0-2.55 4.33 2.07 4.22 51.62 0 0 4.32-.47 2.07 4.22 51.62 0 0 2.55-4.34 2.07 4.22 51.62 0 0-1.33-.67Z" style="fill:#64311d;fill-opacity:1;stroke:#fea;stroke-width:.529167;stroke-dasharray:none;stroke-opacity:1"/>
  <ellipse cx="4.81" cy="14.92" rx="2.42" ry="1.86" style="fill:#64311d;fill-opacity:1;stroke:#fea;stroke-width:.529167;stroke-dasharray:none;stroke-opacity:1"/>
  <circle cx="6.99" cy="16.01" r=".74" style="fill:#64311d;fill-opacity:1;stroke:#fea;stroke-width:.529167;stroke-dasharray:none;stroke-opacity:1"/>
  <ellipse cx="13.41" cy="21.93" rx="1.92" ry="1.89" style="fill:#64311d;fill-opacity:1;stroke:#fea;stroke-width:.475385;stroke-dasharray:none;stroke-opacity:1"/>
  <circle cx="20.98" cy="5.07" r=".74" style="fill:#64311d;fill-opacity:1;stroke:#fff;stroke-width:0;stroke-dasharray:none;stroke-opacity:1"/>
  <circle cx="21.42" cy="23.02" r=".74" style="fill:#64311d;fill-opacity:1;stroke:#fea;stroke-width:.529167;stroke-dasharray:none;stroke-opacity:1"/>
  <circle cx="20.46" cy="23.79" r=".74" style="fill:#64311d;fill-opacity:1;stroke:#fea;stroke-width:.529167;stroke-dasharray:none;stroke-opacity:1"/>
  <circle cx="6.67" cy="13.96" r=".74" style="fill:#64311d;fill-opacity:1;stroke:#fea;stroke-width:.529167;stroke-dasharray:none;stroke-opacity:1"/>
  <circle cx="7.34" cy="14.85" r=".74" style="fill:#64311d;fill-opacity:1;stroke:#fea;stroke-width:.529167;stroke-dasharray:none;stroke-opacity:1"/>
  <circle cx="13.11" cy="20.34" r=".74" style="fill:#64311d;fill-opacity:1;stroke:#fea;stroke-width:.529167;stroke-dasharray:none;stroke-opacity:1"/>
  <circle cx="14.21" cy="20.75" r=".74" style="fill:#64311d;fill-opacity:1;stroke:#fea;stroke-width:.529167;stroke-dasharray:none;stroke-opacity:1"/>
  <circle cx="13.4" cy="21.88" r="1.66" style="fill:#64311d;fill-opacity:1;stroke:#fff;stroke-width:0;stroke-dasharray:none;stroke-opacity:1"/>
  <circle cx="14.92" cy="21.49" r=".74" style="fill:#64311d;fill-opacity:1;stroke:#fea;stroke-width:.529167;stroke-dasharray:none;stroke-opacity:1"/>
  <circle cx="14.02" cy="21.06" r=".8" style="fill:#64311d;fill-opacity:1;stroke:#fff;stroke-width:0;stroke-dasharray:none;stroke-opacity:1"/>
  <circle cx="13.17" cy="20.68" r=".8" style="fill:#64311d;fill-opacity:1;stroke:#fff;stroke-width:0;stroke-dasharray:none;stroke-opacity:1"/>
  <path d="m28.03 12.82-.12.75a11 11 0 0 1-.32 1.24.76.76 0 0 1-.04.07l-.02.01.04-.04c.57-.01.1-.07.35.07v-.03l-.05-.3c-.06-.25-.2-.48-.35-.7-.19-.21-.44-.35-.68-.48a2.18 2.18 0 0 1-.32-.22l-.03-.03c.03.05.05.06.04.13l-.02.08s0 .01 0 0c.02 0 .03 0 .05-.02l.08-.04a10.83 10.83 0 0 1 .98-.47c.1-.04.21-.1.33-.14l.13.02.13.02h-.04l-.04-.03c-.08-.1-.05-.05-.08-.16-.01.37.52.38.52 0-.03-.18 0-.1-.1-.24l-.08-.06c-.06-.04-.14-.04-.22-.05a.82.82 0 0 0-.38 0c-.14.04-.28.1-.41.17l-.45.2-.54.27c-.1.06-.24.12-.3.2-.12.16-.1.26-.03.42l.06.09c.12.13.31.23.46.32.18.1.37.2.52.34.11.15.2.31.25.5l.02.07c.02.13.02.42.16.5.1.04.2.01.31.02.04-.02.08-.05.1-.08a.8.8 0 0 0 .13-.2c.06-.12.11-.26.15-.4.08-.32.16-.64.22-.97l.12-.76c.05-.37-.48-.44-.53-.07z" style="fill:#fea;fill-opacity:1;stroke:#fff;stroke-width:0;stroke-dasharray:none;stroke-opacity:1"/>
  <circle cx="30.67" cy="9.77" r="1.77" style="fill:#251573;fill-opacity:1;stroke:#fff;stroke-width:0;stroke-dasharray:none;stroke-opacity:1"/>
  <path d="M29.74 16.62h.48-.03c-.05-.02-.12-.02-.14-.06-.04-.12-.02-.25-.03-.37 0-.04-.05.05-.07.08l-.05.1-.01.2c.13.41.4.78.67 1.14a6.12 6.12 0 0 0 .98.93c.4.24.8-.23.4-.47-.07-.04-.13-.07-.18-.13a5.51 5.51 0 0 1-.97-1.14c-.12-.18-.08-.14-.18-.32l-.04-.07-.04.07-.04.03c.15-.12.16-.12.06-.45-.02-.05-.1-.06-.16-.09l-.1-.02c-.19-.03-.37 0-.55-.01-.49 0-.49.58 0 .58z" style="fill:#fea;fill-opacity:1;stroke:#fea;stroke-width:0;stroke-dasharray:none;stroke-opacity:1"/>
  <ellipse cx="30.15" cy="10.35" rx="1.03" ry=".96" style="fill:#fff;fill-opacity:1;stroke:#fff;stroke-width:0;stroke-dasharray:none;stroke-opacity:1"/>
  <circle cx="6.98" cy="14.87" r=".8" style="fill:#64311d;fill-opacity:1;stroke:#fff;stroke-width:0;stroke-dasharray:none;stroke-opacity:1"/>
  <circle cx="6.64" cy="14.08" r=".8" style="fill:#64311d;fill-opacity:1;stroke:#fff;stroke-width:0;stroke-dasharray:none;stroke-opacity:1"/>
  <circle cx="6.89" cy="15.69" r=".8" style="fill:#64311d;fill-opacity:1;stroke:#fff;stroke-width:0;stroke-dasharray:none;stroke-opacity:1"/>
  <circle cx="20.57" cy="23.61" r=".74" style="fill:#64311d;fill-opacity:1;stroke:#fff;stroke-width:0;stroke-dasharray:none;stroke-opacity:1"/>
  <circle cx="21.17" cy="22.93" r=".74" style="fill:#64311d;fill-opacity:1;stroke:#fff;stroke-width:0;stroke-dasharray:none;stroke-opacity:1"/>
  <circle cx="21.3" cy="22.4" r=".74" style="fill:#64311d;fill-opacity:1;stroke:#fff;stroke-width:0;stroke-dasharray:none;stroke-opacity:1"/>
  <circle cx="19.54" cy="4.62" r=".74" style="fill:#64311d;fill-opacity:1;stroke:#fff;stroke-width:0;stroke-dasharray:none;stroke-opacity:1"/>
  <circle cx="20.34" cy="4.59" r=".74" style="fill:#64311d;fill-opacity:1;stroke:#fff;stroke-width:0;stroke-dasharray:none;stroke-opacity:1"/>
  <path d="M22.47-30.54c-.02-.58-.02-1.15-.02-1.73a8 8 0 0 0-.12-1.58c-.1-.55-.89-.4-.78.15.09.48.1.96.1 1.44l.03 1.76c.03.56.82.52.8-.04z" style="fill:#ff9696;fill-opacity:1;stroke:#fff;stroke-width:.371999;stroke-opacity:1"/>
  <path d="M22.09-30.4a7.2 7.2 0 0 0-.69-1.18l-.26-.34c-.5-.6-1.07-1.14-1.62-1.7l-.7-.72c-.36-.36-.2-.19-.5-.52-.38-.42-.96.12-.58.54l.51.54.71.72c.53.53 1.06 1.06 1.55 1.62l.23.3c.25.34.46.71.64 1.1.25.5.96.14.7-.36zM23.42-31.28c.27-.48.44-1 .61-1.52l.63-1.77c.18-.53-.57-.78-.75-.25l-.63 1.77c-.16.45-.3.91-.53 1.34-.3.47.37.9.67.43zM22.77-13l-.58.95-.32.5c-.09.14-.19.28-.3.4-.36.43.24.94.6.52a4 4 0 0 0 .36-.48l.9-1.43c.32-.46-.33-.91-.66-.45zM23.68-12.5c.15 1.13.2 2.27.25 3.4l.06 2.32c0 .56.8.55.8 0l-.07-2.35a40.6 40.6 0 0 0-.25-3.45c-.05-.56-.84-.48-.79.08zM24.53-12.92c.15.7.46 1.34.76 1.97.15.3.3.61.48.9.02.01.03.04.04.06.31.47.98.03.66-.44 0-.02-.02-.04-.04-.06-.16-.25-.3-.53-.42-.8a9.72 9.72 0 0 1-.69-1.71c-.06-.56-.85-.47-.79.08z" style="fill:#ff9696;fill-opacity:1;stroke:#fff;stroke-width:.371999;stroke-opacity:1"/>
  <circle cx="17.71" cy="-30.6" r=".74" style="fill:#ff9696;fill-opacity:1;stroke:#fff;stroke-width:.529167;stroke-dasharray:none;stroke-opacity:1"/>
  <circle cx="15.78" cy="-31.24" r=".74" style="fill:#ff9696;fill-opacity:1;stroke:#fff;stroke-width:.529167;stroke-dasharray:none;stroke-opacity:1"/>
  <circle cx="16.9" cy="-31.31" r=".74" style="fill:#ff9696;fill-opacity:1;stroke:#fff;stroke-width:.529167;stroke-dasharray:none;stroke-opacity:1"/>
  <ellipse cx="7.3" cy="-13.76" rx="2.42" ry="1.86" style="fill:#ff9696;fill-opacity:1;stroke:#fff;stroke-width:.529167;stroke-dasharray:none;stroke-opacity:1"/>
  <path d="M11.48-18.45c-.32-.21-.57-.4-.93-.56a7.38 7.38 0 0 0-.84-.34 9.14 9.14 0 0 0-2.2-.4c-.38-.02-.78 0-1.17-.01-.46.06-.92.1-1.38.17a10.6 10.6 0 0 0-5.01 2.34c-.36.33-.65.72-.98 1.07-.24.45-.53.87-.72 1.34A5.53 5.53 0 0 0-2.1-12c.11.9.48 1.82.88 2.63.19.36.42.7.62 1.06.49.73 1.01 1.44 1.61 2.09l.42.41c2 1.97 4.78-.87 2.78-2.83l-.23-.21a12 12 0 0 1-1.17-1.5c-.38-.6-.45-.68-.74-1.33-.08-.17-.3-.7-.3-.94-.02-.35.1-.64.2-.96.13-.17.23-.36.38-.5a6.6 6.6 0 0 1 2.27-1.34c.61-.21 1.08-.27 1.7-.37.26 0 .51-.02.77-.01.5.02 1.1.1 1.58.29.14.06.31.16.45.24 2.26 1.67 4.62-1.51 2.36-3.18z" style="fill:#ff9696;fill-opacity:1;stroke:#fff;stroke-width:.529167;stroke-dasharray:none;stroke-opacity:1"/>
  <ellipse cx="25.16" cy="14.98" rx="4.19" ry="2.12" style="fill:#ff9696;fill-opacity:1;stroke:#fff;stroke-width:.272375;stroke-opacity:0" transform="matrix(.82 -.57 -.42 -.9 0 0)"/>
  <ellipse cx="-7.2" cy="21.45" rx="4.19" ry="2.12" style="fill:#ff9696;fill-opacity:1;stroke:#fff;stroke-width:.272375;stroke-opacity:0" transform="matrix(-.82 -.57 .42 -.9 0 0)"/>
  <ellipse cx="-37.58" cy="-9.69" rx="9.11" ry="4.34" style="fill:#ff9696;fill-opacity:1;stroke:#fff;stroke-width:.530031;stroke-dasharray:none;stroke-opacity:1" transform="matrix(-.85 .53 .46 .89 0 0)"/>
  <ellipse cx="26.36" cy="-39.24" rx="7.47" ry="4.37" style="fill:#ff9696;fill-opacity:1;stroke:#fff;stroke-width:.556462;stroke-dasharray:none;stroke-opacity:1" transform="matrix(.72 .7 -.32 .95 0 0)"/>
  <ellipse cx="12.16" cy="-21.93" rx="9.58" ry="7.16" style="fill:#ff9696;fill-opacity:1;stroke:#fff;stroke-width:.529167;stroke-dasharray:none;stroke-opacity:1"/>
  <circle cx="17.89" cy="-13.46" r=".74" style="fill:#ff9696;fill-opacity:1;stroke:#fff;stroke-width:.529167;stroke-dasharray:none;stroke-opacity:1"/>
  <ellipse cx="25.22" cy="-22.12" rx="8.28" ry="9.97" style="fill:#ff9696;fill-opacity:1;stroke:#fff;stroke-width:.529167;stroke-dasharray:none;stroke-opacity:1"/>
  <circle cx="-1.84" cy="-23.09" r=".01" style="fill:#ff9696;fill-opacity:1;stroke:#fff;stroke-width:.264583"/>
  <path d="M4.4-26.08a2.07 4.22 51.62 0 0-2.99 1.16 2.07 4.22 51.62 0 0-2.55 4.33 2.07 4.22 51.62 0 0 4.32-.48 2.07 4.22 51.62 0 0 2.55-4.33 2.07 4.22 51.62 0 0-1.33-.68z" style="fill:#ff9696;fill-opacity:1;stroke:#fff;stroke-width:.529167;stroke-dasharray:none;stroke-opacity:1"/>
  <ellipse cx="1.24" cy="-20.73" rx="2.42" ry="1.86" style="fill:#ff9696;fill-opacity:1;stroke:#fff;stroke-width:.529167;stroke-dasharray:none;stroke-opacity:1"/>
  <circle cx="3.42" cy="-19.64" r=".74" style="fill:#ff9696;fill-opacity:1;stroke:#fff;stroke-width:.529167;stroke-dasharray:none;stroke-opacity:1"/>
  <ellipse cx="9.84" cy="-13.72" rx="1.92" ry="1.89" style="fill:#ff9696;fill-opacity:1;stroke:#fff;stroke-width:.475385;stroke-dasharray:none;stroke-opacity:1"/>
  <circle cx="17.4" cy="-30.58" r=".74" style="fill:#ff9696;fill-opacity:1;stroke:#fff;stroke-width:0;stroke-dasharray:none;stroke-opacity:1"/>
  <circle cx="17.85" cy="-12.63" r=".74" style="fill:#ff9696;fill-opacity:1;stroke:#fff;stroke-width:.529167;stroke-dasharray:none;stroke-opacity:1"/>
  <circle cx="16.89" cy="-11.86" r=".74" style="fill:#ff9696;fill-opacity:1;stroke:#fff;stroke-width:.529167;stroke-dasharray:none;stroke-opacity:1"/>
  <circle cx="3.1" cy="-21.69" r=".74" style="fill:#ff9696;fill-opacity:1;stroke:#fff;stroke-width:.529167;stroke-dasharray:none;stroke-opacity:1"/>
  <circle cx="3.76" cy="-20.81" r=".74" style="fill:#ff9696;fill-opacity:1;stroke:#fff;stroke-width:.529167;stroke-dasharray:none;stroke-opacity:1"/>
  <circle cx="9.54" cy="-15.32" r=".74" style="fill:#ff9696;fill-opacity:1;stroke:#fff;stroke-width:.529167;stroke-dasharray:none;stroke-opacity:1"/>
  <circle cx="10.64" cy="-14.91" r=".74" style="fill:#ff9696;fill-opacity:1;stroke:#fff;stroke-width:.529167;stroke-dasharray:none;stroke-opacity:1"/>
  <circle cx="11.37" cy="-14.06" r=".74" style="fill:#ff9696;fill-opacity:1;stroke:#fff;stroke-width:0;stroke-dasharray:none;stroke-opacity:1"/>
  <circle cx="9.82" cy="-13.77" r="1.66" style="fill:#ff9696;fill-opacity:1;stroke:#fff;stroke-width:0;stroke-dasharray:none;stroke-opacity:1"/>
  <circle cx="10.45" cy="-14.6" r=".8" style="fill:#ff9696;fill-opacity:1;stroke:#fff;stroke-width:0;stroke-dasharray:none;stroke-opacity:1"/>
  <circle cx="9.6" cy="-14.97" r=".8" style="fill:#ff9696;fill-opacity:1;stroke:#fff;stroke-width:0;stroke-dasharray:none;stroke-opacity:1"/>
  <path d="M24.5-22.79a11 11 0 0 1-.44 1.99.76.76 0 0 1-.05.07l-.02.01.04-.04c.57 0 .1-.06.35.08v-.04l-.05-.29c-.06-.26-.2-.5-.35-.7-.19-.22-.44-.35-.68-.49a2.18 2.18 0 0 1-.32-.21c-.05-.05-.05-.04-.03-.04.03.05.05.06.04.13l-.02.08v.01c.02 0 .03-.02.05-.03l.08-.04a10.83 10.83 0 0 1 .98-.47c.11-.04.21-.1.33-.14l.13.02.13.02h-.04l-.04-.03c-.08-.1-.05-.04-.08-.16-.01.37.52.38.52 0-.03-.17 0-.1-.1-.24l-.08-.06c-.06-.03-.14-.03-.21-.05a.82.82 0 0 0-.4 0c-.13.04-.26.11-.4.17l-.45.21-.54.27c-.1.05-.24.11-.3.2-.12.16-.1.25-.03.41l.06.1c.12.12.31.22.46.31.18.1.37.2.52.35.11.14.2.3.25.48l.02.08c.02.13.02.43.16.5.1.04.2.02.31.03.04-.03.08-.05.1-.09a.8.8 0 0 0 .13-.19c.06-.13.11-.27.15-.4.08-.33.16-.65.22-.98l.12-.76c.05-.37-.48-.44-.53-.07z" style="fill:#ff9696;fill-opacity:1;stroke:#fff;stroke-width:0;stroke-dasharray:none;stroke-opacity:1"/>
  <circle cx="27.13" cy="-25.84" r="1.77" style="fill:#ff9696;fill-opacity:1;stroke:#fff;stroke-width:0;stroke-dasharray:none;stroke-opacity:1"/>
  <path d="M26.2-18.99h.1l.38.01h-.03c-.05-.02-.12-.02-.14-.07-.04-.11-.02-.24-.03-.37 0-.03-.05.05-.07.08l-.05.1-.01.2c.13.41.4.78.67 1.14a6.12 6.12 0 0 0 .98.93c.4.24.8-.23.4-.47-.07-.04-.13-.07-.18-.13a5.51 5.51 0 0 1-.97-1.13c-.12-.19-.08-.15-.18-.32l-.04-.08-.04.07-.04.03c.15-.12.16-.12.06-.45-.02-.05-.1-.06-.16-.08l-.1-.03c-.19-.02-.37 0-.55 0-.49 0-.49.57 0 .57z" style="fill:#ff9696;fill-opacity:1;stroke:#fff;stroke-width:0;stroke-dasharray:none;stroke-opacity:1"/>
  <ellipse cx="26.61" cy="-25.26" rx="1.03" ry=".96" style="fill:#ff9696;fill-opacity:1;stroke:#fff;stroke-width:0;stroke-dasharray:none;stroke-opacity:1"/>
  <circle cx="3.41" cy="-20.78" r=".8" style="fill:#ff9696;fill-opacity:1;stroke:#fff;stroke-width:0;stroke-dasharray:none;stroke-opacity:1"/>
  <circle cx="3.07" cy="-21.57" r=".8" style="fill:#ff9696;fill-opacity:1;stroke:#fff;stroke-width:0;stroke-dasharray:none;stroke-opacity:1"/>
  <circle cx="3.32" cy="-19.96" r=".8" style="fill:#ff9696;fill-opacity:1;stroke:#fff;stroke-width:0;stroke-dasharray:none;stroke-opacity:1"/>
  <circle cx="17" cy="-12.04" r=".74" style="fill:#ff9696;fill-opacity:1;stroke:#fff;stroke-width:0;stroke-dasharray:none;stroke-opacity:1"/>
  <circle cx="17.6" cy="-12.73" r=".74" style="fill:#ff9696;fill-opacity:1;stroke:#fff;stroke-width:0;stroke-dasharray:none;stroke-opacity:1"/>
  <circle cx="17.73" cy="-13.25" r=".74" style="fill:#ff9696;fill-opacity:1;stroke:#fff;stroke-width:0;stroke-dasharray:none;stroke-opacity:1"/>
  <circle cx="15.97" cy="-31.04" r=".74" style="fill:#ff9696;fill-opacity:1;stroke:#fff;stroke-width:0;stroke-dasharray:none;stroke-opacity:1"/>
  <circle cx="16.77" cy="-31.07" r=".74" style="fill:#ff9696;fill-opacity:1;stroke:#fff;stroke-width:0;stroke-dasharray:none;stroke-opacity:1"/>
  <circle cx="14.65" cy="21.64" r=".74" style="fill:#64311d;fill-opacity:1;stroke:#fff;stroke-width:0;stroke-dasharray:none;stroke-opacity:1"/>
</svg>
