<?xml version="1.0" encoding="UTF-8" standalone="no"?>
<!-- Created with Inkscape (http://www.inkscape.org/) -->

<svg
   width="518"
   height="433"
   viewBox="0 0 137.05416 114.56458"
   version="1.1"
   id="svg10623"
   xml:space="preserve"
   inkscape:version="1.2.2 (732a01da63, 2022-12-09)"
   sodipodi:docname="catq.svg"
   xmlns:inkscape="http://www.inkscape.org/namespaces/inkscape"
   xmlns:sodipodi="http://sodipodi.sourceforge.net/DTD/sodipodi-0.dtd"
   xmlns="http://www.w3.org/2000/svg"
   xmlns:svg="http://www.w3.org/2000/svg"><sodipodi:namedview
     id="namedview10625"
     pagecolor="#ffffff"
     bordercolor="#000000"
     borderopacity="0.25"
     inkscape:showpageshadow="2"
     inkscape:pageopacity="0.0"
     inkscape:pagecheckerboard="0"
     inkscape:deskcolor="#d1d1d1"
     inkscape:document-units="mm"
     showgrid="false"
     inkscape:zoom="0.76435185"
     inkscape:cx="418.00121"
     inkscape:cy="559.95154"
     inkscape:window-width="3360"
     inkscape:window-height="1850"
     inkscape:window-x="3348"
     inkscape:window-y="-12"
     inkscape:window-maximized="1"
     inkscape:current-layer="layer1" /><defs
     id="defs10620" /><g
     inkscape:label="Слой 1"
     inkscape:groupmode="layer"
     id="layer1"><path
       style="fill:#000000;stroke-width:0.264583"
       d="m 78.012761,114.26489 c 17.54288,-1.08123 31.940179,-6.98036 41.665089,-17.071798 4.12886,-4.28448 6.57236,-7.80965 9.14889,-13.1989 3.60627,-7.543112 5.5895,-16.099202 6.19832,-26.740932 0.14801,-2.58711 0.32553,-4.95111 0.39449,-5.25334 0.24799,-1.08689 1.17814,-14.44878 1.47487,-21.18699 0.5439,-12.35095 -0.15323,-24.05688 -1.75361,-29.44594 L 134.73486,0 132.95754,0.66838 c -5.7095,2.14711 -15.19497,8.52166 -28.12203,18.89893 l -5.178039,4.15669 -1.78681,-0.9008 c -4.62384,-2.33105 -12.07923,-4.89052 -17.62275,-6.04997 -6.153076,-1.28695 -14.833856,-1.49864 -20.902086,-0.50972 -5.73173,0.93409 -13.57674,3.43397 -19.46265,6.20195 l -2.6616,1.25168 -0.91027,-0.76845 C 23.548495,12.17435 9.5119253,2.53458 3.6488153,0.51738 l -1.42638,-0.49075 -0.39943,1.37399 C 0.52196529,5.87602 -0.02040471,12.22779 5.8528671e-4,22.74314 0.01788529,31.41898 0.43785529,39.96398 1.2819653,48.81664 c 0.22138,2.32171 0.51992,6.18582 0.66341,8.58692 1.40385,23.490282 10.2643997,39.384942 27.2263297,48.84047 6.98051,3.89132 15.75784,6.52156 25.54392,7.65456 4.14116,0.47945 17.94088,0.69642 23.297136,0.3663 z m -5.389486,-8.86495 c -0.75819,-0.37782 -2.1234,-1.44289 -3.03379,-2.36682 l -1.65527,-1.67986 -1.71451,1.46195 c -1.91255,1.63083 -3.64104,2.60842 -5.09385,2.88097 -2.05513,0.38554 -4.29234,-1.40901 -6.14001,-4.92514 -1.1364,-2.162548 -1.06274,-2.401958 0.13501,-0.43883 1.37754,2.25779 2.6326,3.64253 3.82765,4.22312 1.96967,0.95694 3.39135,0.34376 7.1993,-3.10509 l 2.00332,-1.814388 1.27747,1.439578 c 0.70261,0.79178 1.28127,1.51874 1.2859,1.61549 0.0198,0.41357 2.66207,2.07718 3.769606,2.3734 1.04637,0.27986 1.37788,0.25794 2.48315,-0.16416 1.60315,-0.61225 3.37159,-2.36365 4.81273,-4.76639 1.35074,-2.252008 1.45618,-2.049928 0.18689,0.35818 -1.29865,2.4638 -2.88721,4.22411 -4.48225,4.96685 -1.74914,0.81449 -3.14262,0.79762 -4.861346,-0.0589 z M 122.70016,40.27939 c -7.56774,-5.49266 -10.71869,-7.64553 -14.60485,-9.97867 -1.63711,-0.98288 -2.97657,-1.82907 -2.97657,-1.88043 0,-0.38956 8.56608,3.76696 12.06036,5.85206 4.19772,2.50486 9.25402,7.09485 12.21314,11.08682 2.02225,2.7281 1.79679,2.67204 -1.17518,-0.29221 -1.58645,-1.58232 -4.06905,-3.73673 -5.5169,-4.78757 z M 6.3480553,47.05691 c 1.88194,-3.23504 7.9484097,-9.21107 12.1196497,-11.93897 2.33657,-1.52806 11.79607,-6.3568 13.09687,-6.68548 0.79199,-0.20011 0.77157,-0.18636 -4.23333,2.84964 -4.14941,2.51707 -13.56652,9.25692 -16.5635,11.85454 -1.2461397,1.08009 -2.8008397,2.58887 -3.4548997,3.35285 -1.35234,1.57965 -1.65832,1.7596 -0.96479,0.56742 z M 107.77805,22.98256 c 0.55432,-1.03578 6.19003,-6.64863 9.81944,-9.77964 5.04362,-4.35102 15.31567,-11.18947 15.91261,-10.59356 0.19565,0.19532 0.33632,1.34311 0.36946,3.0147 l 0.0535,2.69929 -0.35414,-2.19681 c -0.19478,-1.20824 -0.42506,-2.26773 -0.51174,-2.35441 -0.20654,-0.20654 -1.33135,0.58726 -6.12033,4.31922 -2.18281,1.70103 -5.45021,4.1689 -7.26088,5.48416 -4.42644,3.21532 -8.10286,6.16384 -10.26595,8.23336 -0.98326,0.94073 -1.8217,1.71438 -1.8632,1.71922 -0.0415,0.005 0.058,-0.24065 0.22121,-0.54553 z"
       id="path11126" /></g></svg>
