<?xml version="1.0" encoding="UTF-8" standalone="no"?>
<!-- Created with Inkscape (http://www.inkscape.org/) -->

<svg
   width="550"
   height="600"
   viewBox="0 0 145.52083 158.75"
   version="1.1"
   id="svg4515"
   xml:space="preserve"
   inkscape:version="1.2.2 (732a01da63, 2022-12-09)"
   sodipodi:docname="lofigirl.svg"
   xmlns:inkscape="http://www.inkscape.org/namespaces/inkscape"
   xmlns:sodipodi="http://sodipodi.sourceforge.net/DTD/sodipodi-0.dtd"
   xmlns="http://www.w3.org/2000/svg"
   xmlns:svg="http://www.w3.org/2000/svg"><sodipodi:namedview
     id="namedview4517"
     pagecolor="#ffffff"
     bordercolor="#000000"
     borderopacity="0.25"
     inkscape:showpageshadow="2"
     inkscape:pageopacity="0.0"
     inkscape:pagecheckerboard="0"
     inkscape:deskcolor="#d1d1d1"
     inkscape:document-units="mm"
     showgrid="false"
     inkscape:zoom="1.0809568"
     inkscape:cx="338.12639"
     inkscape:cy="675.32766"
     inkscape:window-width="3360"
     inkscape:window-height="1850"
     inkscape:window-x="3348"
     inkscape:window-y="-12"
     inkscape:window-maximized="1"
     inkscape:current-layer="layer1" /><defs
     id="defs4512" /><g
     inkscape:label="Слой 1"
     inkscape:groupmode="layer"
     id="layer1"><path
       style="fill:#000000;stroke-width:0.264583"
       d="m 72.107097,158.34071 c -0.39903,-0.39903 -0.12876,-1.32953 0.61737,-2.12558 0.43589,-0.46505 0.79253,-0.96745 0.79253,-1.11643 0,-0.54534 2.502337,-4.55157 2.961157,-4.7408 0.11761,-0.0485 0.21384,-0.26225 0.21384,-0.47497 0,-0.21273 0.56845,-1.2446 1.26323,-2.29306 0.69478,-1.04845 1.41684,-2.21046 1.60457,-2.58224 0.18774,-0.37177 0.69084,-1.04992 1.11802,-1.507 0.42717,-0.45708 0.77933,-0.98633 0.78256,-1.17613 0.003,-0.18979 0.24709,-0.64273 0.5419,-1.00653 0.2948,-0.3638 1.36786,-1.85209 2.38456,-3.30729 3.3525,-4.79843 5.44563,-7.31284 9.41634,-11.31149 3.17592,-3.19826 4.60355,-4.40945 7.495066,-6.3587 3.75953,-2.53439 7.15726,-4.42252 7.95844,-4.42252 0.26235,0 0.55058,-0.11906 0.64052,-0.26459 0.0899,-0.14552 0.44712,-0.26458 0.79375,-0.26458 0.34662,0 0.70381,-0.11906 0.79375,-0.26458 0.0899,-0.14552 0.43034,-0.26458 0.75645,-0.26458 0.32611,0 0.70603,-0.10242 0.84428,-0.22759 0.13824,-0.12518 1.26338,-0.41417 2.50031,-0.6422 2.5048,-0.46176 9.93785,-0.4107 10.42014,0.0716 0.14796,0.14797 0.47209,0.26903 0.72027,0.26903 1.32345,0 4.26993,2.45671 5.26334,4.38844 0.21804,0.42401 0.4646,0.83046 0.54789,0.90322 0.38864,0.33949 2.95617,3.81034 4.40377,5.95313 0.88478,1.30969 2.09724,2.8519 2.69435,3.42713 0.87585,0.84377 1.08566,1.22969 1.08566,1.997 0,0.8723 -0.29159,1.23509 -3.51881,4.37807 -1.93534,1.88483 -4.02208,3.82328 -4.63719,4.30767 -3.80129,2.9934 -9.31756,6.9245 -9.71673,6.9245 -0.0933,0 -0.53009,0.25673 -0.97075,0.57051 -1.21734,0.86682 -7.91383,4.19199 -8.44216,4.19199 -0.25541,0 -0.53797,0.11907 -0.62791,0.26459 -0.0899,0.14552 -0.39462,0.26458 -0.67707,0.26458 -0.28245,0 -0.51448,0.0893 -0.51561,0.19844 -0.003,0.26502 -1.3083,0.85989 -1.88716,0.85989 -0.25344,0 -0.53439,0.11907 -0.62432,0.26459 -0.0899,0.14552 -0.391,0.26458 -0.66903,0.26458 -0.27802,0 -0.92614,0.23626 -1.44024,0.52501 -0.51411,0.28876 -1.30069,0.5529 -1.74796,0.58698 -0.44727,0.0341 -0.87072,0.15502 -0.941,0.26874 -0.0703,0.11372 -0.39461,0.20677 -0.72072,0.20677 -0.32611,0 -0.70604,0.11042 -0.84428,0.24537 -0.13825,0.13495 -0.60854,0.29467 -1.04511,0.35493 -0.43656,0.0603 -0.97234,0.18432 -1.19062,0.27568 -0.21828,0.0914 -0.694526,0.20256 -1.058326,0.24708 -0.36381,0.0445 -0.79741,0.16631 -0.96357,0.27063 -0.16617,0.10432 -0.77348,0.23212 -1.34959,0.28402 -0.57611,0.0519 -1.17143,0.17095 -1.32292,0.26458 -0.15149,0.0936 -0.7468,0.21269 -1.32291,0.26458 -0.57612,0.0519 -1.21407,0.20166 -1.41768,0.3328 -0.20362,0.13115 -1.62037,0.23846 -3.14833,0.23846 -1.52797,0 -2.946,0.10809 -3.15117,0.24019 -0.43171,0.27798 -14.396637,0.51235 -14.662897,0.24609 z m -4.01406,-0.53247 c -0.29104,-0.0644 -0.70776,-0.1834 -0.92604,-0.26445 -0.21828,-0.0811 -0.86276,-0.19467 -1.43217,-0.25247 -0.56941,-0.0578 -1.16472,-0.19738 -1.32292,-0.31017 -0.15819,-0.11278 -0.64481,-0.24056 -1.08137,-0.28396 -0.43656,-0.0434 -0.90686,-0.18773 -1.0451,-0.32073 -0.13825,-0.13301 -0.64203,-0.24183 -1.11953,-0.24183 -0.70441,0 -1.20923,-0.32175 -2.67642,-1.70582 -2.56127,-2.41616 -2.95725,-3.31331 -2.98954,-6.77316 -0.0221,-2.37377 0.0568,-2.93796 0.52883,-3.77836 0.30519,-0.54335 0.55488,-1.1597 0.55488,-1.36964 0,-0.20995 0.28514,-0.89094 0.63363,-1.51331 0.53716,-0.95931 0.77673,-1.14396 1.57368,-1.21287 0.57403,-0.0496 1.21836,0.10104 1.65476,0.38698 0.69791,0.45729 0.70802,0.45609 0.43104,-0.051 -0.15601,-0.2856 -0.82859,-1.05008 -1.49463,-1.69884 -0.66603,-0.64876 -1.21098,-1.36909 -1.21098,-1.60073 0,-0.23164 -0.12583,-0.547 -0.27963,-0.7008 -0.39597,-0.39597 -0.4178,-6.64292 -0.0246,-7.03614 0.16734,-0.16732 0.30424,-0.5822 0.30424,-0.92195 0,-1.17592 6.68649,-7.47852 7.93404,-7.47852 0.1596,0 0.52037,-0.21447 0.80172,-0.47659 0.72095,-0.67166 2.59857,-1.64008 3.17988,-1.64008 0.2687,0 0.56213,-0.11906 0.65207,-0.26458 0.0899,-0.14552 0.39462,-0.26459 0.67707,-0.26459 0.28246,0 0.51355,-0.11906 0.51355,-0.26458 0,-0.14552 0.22821,-0.26458 0.50712,-0.26458 0.27892,0 0.54681,-0.0893 0.59532,-0.19844 0.0485,-0.10914 0.68351,-0.49145 1.41111,-0.84959 0.727597,-0.35813 1.820617,-0.98321 2.428917,-1.38906 0.6083,-0.40585 1.17923,-0.73791 1.26872,-0.73791 0.0895,0 1.04493,-0.59531 2.12319,-1.32292 1.07827,-0.7276 2.0373,-1.32291 2.1312,-1.32291 0.14974,0 2.35311,-1.64673 10.38912,-7.76448 1.11747,-0.85072 2.64218,-2.10087 3.38824,-2.77812 0.74606,-0.67725 2.11528,-1.854656 3.04271,-2.616466 0.927426,-0.76181 2.333956,-1.92267 3.125626,-2.57969 0.84464,-0.70098 1.71924,-1.20116 2.11666,-1.2105 4.76878,-0.11209 7.68874,0.21992 7.68874,0.87426 0,0.11 0.16577,0.2 0.36837,0.2 0.38864,0 3.33579,3.03838 3.33579,3.43904 0,0.12864 -0.11386,0.30426 -0.25303,0.39027 -0.13916,0.086 -0.18595,0.33116 -0.10398,0.544786 0.10277,0.2678 -0.0289,0.3884 -0.42405,0.3884 -0.32347,0 -0.50018,0.11795 -0.40571,0.27081 0.10041,0.16248 1.38772,0.25808 3.21794,0.239 1.90217,-0.0199 3.15982,0.0774 3.34075,0.25835 0.15959,0.15959 0.48074,0.29017 0.71367,0.29017 0.54929,0 1.84718,0.60331 1.84985,0.85989 0.001,0.10915 0.1694,0.19844 0.37393,0.19844 1.3127,0 5.44897,3.62663 5.44897,4.77758 0,0.28275 0.11906,0.51409 0.26458,0.51409 0.14552,0 0.26458,0.23812 0.26458,0.52917 0,0.29104 0.0893,0.53009 0.19844,0.53123 0.48106,0.005 0.8599,1.59688 0.8599,3.61325 0,1.91611 -0.0655,2.22196 -0.52917,2.4701 -0.35877,0.19201 -0.52917,0.195 -0.52917,0.009 0,-0.15064 -0.1869,-0.27389 -0.41535,-0.27389 -0.22844,0 -0.91305,-0.33715 -1.52135,-0.74921 -0.6083,-0.41206 -1.33426,-0.83268 -1.61325,-0.93471 -0.65525,-0.23963 -10.94472,-0.31378 -11.17794,-0.0806 -0.0973,0.0973 -0.44776,0.17697 -0.77871,0.17697 -0.33096,0 -0.66132,0.0964 -0.73413,0.21419 -0.0728,0.1178 -0.92026,0.3786 -1.88323,0.57956 -0.96296,0.20095 -1.81042,0.46175 -1.88322,0.57955 -0.0728,0.11781 -0.34135,0.2142 -0.59676,0.2142 -0.25542,0 -2.06409,0.81037 -4.01929,1.80083 -4.38496,2.22134 -4.62762,2.36405 -5.790836,3.40573 -0.51648,0.46252 -1.4153,1.19265 -1.99739,1.62251 -1.1389,0.84105 -8.21893,8.05534 -10.20449,10.39801 -0.66476,0.78432 -1.61094,2.02135 -2.10262,2.74896 -0.88326,1.30707 -3.38889,4.63852 -3.68145,4.89479 -0.0831,0.0728 -0.31105,0.41649 -0.50663,0.76385 -0.19558,0.34736 -0.58215,1.0349 -0.85903,1.52786 -0.27688,0.49296 -1.4563,2.31861 -2.62095,4.05699 -1.16464,1.73839 -2.11753,3.22912 -2.11753,3.31274 0,0.0836 -0.568457,1.00986 -1.263237,2.05832 -0.69478,1.04845 -1.43695,2.26347 -1.64927,2.70003 -1.02421,2.10598 -2.15854,3.51452 -2.95928,3.67467 -0.44492,0.089 -0.88336,0.14798 -0.97431,0.1311 -0.091,-0.0169 -0.40349,-0.0834 -0.69453,-0.14779 z m -22.88646,-33.86368 c -0.3638,-0.0736 -0.77457,-0.24288 -0.91281,-0.37608 -0.13825,-0.1332 -0.44987,-0.24218 -0.6925,-0.24218 -0.52824,0 -4.18346,-3.77821 -4.73953,-4.89901 -0.21545,-0.43424 -1.28701,-1.71821 -2.38125,-2.85325 -1.09425,-1.13505 -2.03211,-2.26615 -2.08415,-2.51355 -0.14126,-0.67154 -0.54083,-1.0741 -1.53384,-1.54532 -0.49176,-0.23335 -1.41978,-1.00895 -2.06226,-1.72355 -0.96591,-1.07432 -1.19843,-1.54156 -1.34301,-2.69876 -0.0962,-0.76973 -0.13402,-1.68858 -0.0841,-2.04188 0.0802,-0.56756 -0.0212,-0.65174 -0.87031,-0.72265 -1.11986,-0.0935 -3.13998,-1.6622 -3.13998,-2.43828 0,-0.27111 -0.11907,-0.56652 -0.26459,-0.65646 -0.14552,-0.0899 -0.26458,-1.03101 -0.26458,-2.091267 0,-1.62981 0.0868,-2.00565 0.56134,-2.43178 0.70716,-0.63496 2.35718,-3.08188 3.01612,-4.47278 0.518,-1.0934 0.7423,-3.48723 0.34949,-3.73 -0.12253,-0.0757 -0.2218,-0.33902 -0.2206,-0.58509 0.004,-0.84901 -2.14584,-4.711171 -3.98175,-7.152631 -1.0127,-1.34672 -1.84127,-2.50337 -1.84127,-2.57033 0,-0.067 -0.32742,-0.48612 -0.7276,-0.93147 -1.21997,-1.35766 -1.9845,-2.88808 -1.64632,-3.29556 0.74889,-0.90235 3.20177,-1.76878 3.52534,-1.24524 0.15286,0.24734 9.92875,0.20486 10.51485,-0.0457 0.23181,-0.0991 0.82712,-0.20722 1.32292,-0.240269 0.49579,-0.0331 1.05866,-0.15876 1.25082,-0.27936 0.19216,-0.1206 1.01989,-0.21126 1.83941,-0.20147 l 1.49003,0.0178 3.71684,3.698081 c 2.7667,2.75274 4.15647,3.92876 5.43663,4.600449 l 1.71979,0.90235 0.082,1.29589 c 0.0451,0.71273 0.19394,1.40898 0.33073,1.54723 0.13679,0.13824 0.24871,0.46204 0.24871,0.71955 0,0.25752 0.24063,0.896631 0.53473,1.420251 0.32664,0.58156 0.6213,1.79449 0.75718,3.1169 0.29286,2.85005 1.37057,4.83308 3.13178,5.7626 0.813,0.42909 1.92631,1.47917 1.92631,1.81692 0,0.12718 0.59382,0.88098 1.31961,1.6751 1.53218,1.676456 3.6631,2.832116 5.22212,2.832116 1.58579,0 2.61838,0.2641 3.21846,0.82315 0.29504,0.27487 0.71298,0.49976 0.92876,0.49976 0.21577,0 0.4659,0.11907 0.55584,0.26459 0.0899,0.14552 0.44712,0.26458 0.79375,0.26458 0.34663,0 0.70381,0.11906 0.79375,0.26458 0.21778,0.35238 2.59681,0.34006 2.95216,-0.0153 0.15392,-0.15393 1.874377,-0.34671 3.823227,-0.4284 3.80495,-0.1595 4.96656,-0.48315 6.56675,-1.82962 0.56688,-0.477 1.19622,-0.72043 1.99205,-0.77052 1.53183,-0.0964 3.77261,-1.215806 5.04766,-2.521566 0.56347,-0.57706 1.12438,-1.04919 1.24645,-1.04919 0.12207,0 0.47754,-0.23812 0.78994,-0.529169 0.49106,-0.457481 0.93372,-0.529161 3.26792,-0.529161 2.28156,0 2.72629,0.0687 2.87004,0.44331 0.2182,0.56861 -1.51789,2.3876 -3.68537,3.861326 -0.87312,0.59366 -2.07797,1.50642 -2.67743,2.02834 -0.59947,0.52193 -1.43291,1.12622 -1.85209,1.34288 -0.41918,0.21666 -1.20723,0.79871 -1.75122,1.29344 -1.17557,1.06913 -2.71706,2.1432 -3.07588,2.1432 -0.14112,0 -0.29626,0.0969 -0.34477,0.21526 -0.21484,0.52439 -6.88348,5.27933 -9.33585,6.65674 -0.52519,0.29498 -1.11995,0.53633 -1.32167,0.53633 -0.20173,0 -0.40647,0.0936 -0.454977,0.208 -0.17855,0.42108 -1.77387,1.3795 -2.29623,1.3795 -0.29637,0 -0.61244,0.11906 -0.70238,0.26458 -0.0899,0.14553 -0.66251,0.26404 -1.27238,0.26336 -0.85587,-0.001 -1.29407,-0.17483 -1.9206,-0.76215 -0.44645,-0.41851 -1.20042,-0.84629 -1.67548,-0.95063 -0.76859,-0.16881 -1.15254,0.003 -3.48554,1.5559 -1.442,0.96008 -2.69064,1.7456 -2.77477,1.7456 -0.0841,0 -0.67212,0.35719 -1.30664,0.79375 -0.63452,0.43657 -1.23291,0.79375 -1.32975,0.79375 -0.0968,0 -0.51247,0.23955 -0.92364,0.53232 -1.08912,0.77553 -3.69446,2.11352 -4.11543,2.11352 -0.19908,0 -0.76724,0.22763 -1.26258,0.50584 -0.49534,0.27822 -1.2431,0.54161 -1.66169,0.58532 -0.4186,0.0437 -0.89233,0.17325 -1.05274,0.28788 -0.37269,0.2663 -3.20607,0.47325 -4.07397,0.29755 z m 24.87083,-22.31768 c -1.3369,-0.36439 -1.85208,-0.59276 -1.85208,-0.82102 0,-0.12855 -0.2311,-0.23372 -0.51355,-0.23372 -0.28245,0 -0.5922,-0.12725 -0.68832,-0.28278 -0.0961,-0.15552 -0.72822,-0.26401 -1.40467,-0.24107 -2.48547,0.0843 -2.60234,0.0434 -4.25754,-1.489026 -0.88142,-0.81604 -1.60259,-1.64585 -1.60259,-1.84404 0,-0.5051 -1.02579,-2.27607 -1.54892,-2.6741 -0.2395,-0.18223 -0.61965,-0.33511 -0.84477,-0.33974 -0.22513,-0.005 -0.85021,-0.45991 -1.38907,-1.011751 -0.97402,-0.9975 -0.97974,-1.01643 -0.97974,-3.24701 0,-2.08999 -0.053,-2.307999 -0.77419,-3.18289 -0.67602,-0.82014 -0.7799,-1.171651 -0.81925,-2.772261 -0.0528,-2.14887 0.42651,-7.398799 0.71787,-7.86243 0.11082,-0.17634 0.22853,-0.72626 0.26158,-1.22205 0.0331,-0.49579 0.1435,-1.09111 0.24543,-1.32292 0.10194,-0.231809 0.22981,-0.71913 0.28416,-1.08293 0.1212,-0.81122 1.50744,-3.68083 2.55629,-5.29167 0.42638,-0.654839 1.62221,-2.06383 2.6574,-3.13107 1.99592,-2.05772 7.52456,-6.39393 8.15222,-6.39393 0.4161,0 3.06334,-1.2697 3.21978,-1.54431 0.055,-0.0965 0.18091,-1.13529 0.27984,-2.30839 0.17426,-2.0664 0.15796,-2.1548 -0.52283,-2.83559 -0.6605,-0.66051 -0.87181,-0.70719 -3.51956,-0.77752 l -2.81686,-0.0748 0.0567,-0.77801 c 0.0312,-0.4279 -0.0655,-0.9252 -0.21475,-1.10511 -0.14931,-0.1799 -0.27819,-0.81372 -0.2864,-1.4085 -0.008,-0.59477 -0.11993,-1.14629 -0.24826,-1.22561 -0.12834,-0.0793 -0.23335,-0.54688 -0.23335,-1.03903 0,-0.49214 -0.11906,-0.96839 -0.26458,-1.05833 -0.14552,-0.0899 -0.26458,-0.56619 -0.26458,-1.05833 0,-0.49215 -0.11906,-0.9684 -0.26459,-1.05834 -0.14552,-0.0899 -0.26458,-0.56618 -0.26458,-1.05833 0,-0.49215 -0.11906,-0.9684 -0.26458,-1.05833 -0.14552,-0.0899 -0.26459,-0.44713 -0.26459,-0.79375 0,-0.34663 -0.11906,-0.70382 -0.26458,-0.79375 -0.14552,-0.0899 -0.26458,-0.44713 -0.26458,-0.79375 0,-0.34663 -0.11906,-0.70382 -0.26459,-0.79375 -0.14552,-0.0899 -0.26458,-0.391 -0.26458,-0.66903 0,-0.27803 -0.23812,-0.92946 -0.52917,-1.44764 -0.29104,-0.51818 -0.52916,-1.16961 -0.52916,-1.44764 0,-0.27803 -0.11906,-0.57909 -0.26459,-0.66903 -0.14552,-0.0899 -0.26458,-0.37553 -0.26458,-0.63465 0,-0.63489 -2.26251,-5.04087 -3.68215,-7.17055 -0.63052,-0.94589 -2.80901,-3.39878 -4.84109,-5.45086 -2.98739,-3.01681 -3.67751,-3.85254 -3.60499,-4.36563 0.0774,-0.54796 0.23412,-0.63523 1.14802,-0.63951 0.58209,-0.003 1.23693,-0.12178 1.45521,-0.26458 0.21828,-0.1428 1.75456,-0.23042 3.41396,-0.19472 1.95823,0.0421 3.14443,-0.0408 3.37994,-0.23623 0.19958,-0.16563 1.04455,-0.29859 1.87771,-0.29546 0.83317,0.003 1.6819,-0.12869 1.88608,-0.29293 0.22668,-0.18236 1.53823,-0.29863 3.36854,-0.29863 h 2.99732 l 2.93953,2.91042 c 1.89797,1.87917 3.60278,3.89144 4.81136,5.6791 1.982447,2.93232 3.371397,5.39076 3.371397,5.96739 0,0.19137 0.0893,0.38764 0.19844,0.43615 0.28298,0.12577 1.38906,2.31632 1.38906,2.75098 0,0.20011 0.23812,0.78779 0.52917,1.30596 0.29104,0.51818 0.52916,1.16962 0.52916,1.44764 0,0.27803 0.11906,0.57909 0.26459,0.66903 0.14552,0.0899 0.26458,0.43034 0.26458,0.75645 0,0.32611 0.11505,0.70798 0.25567,0.84859 0.14062,0.14062 0.28569,0.64974 0.32239,1.13137 0.0367,0.48163 0.15978,0.9332 0.2735,1.00349 0.11373,0.0703 0.20677,0.39461 0.20677,0.72072 0,0.32611 0.10078,0.70603 0.22395,0.84428 0.38112,0.42776 1.15935,4.2745 0.97944,4.84134 -0.0936,0.29496 -0.051,0.75209 0.0947,1.01586 0.37029,0.6703 1.08314,3.79186 1.08314,4.74304 0,1.21826 -0.37009,1.40762 -2.41587,1.23611 l -1.81746,-0.15237 -0.002,1.42743 c -0.001,0.78509 -0.0739,2.02318 -0.16143,2.7513 -0.14397,1.19782 -0.0899,1.39302 0.56755,2.05052 0.39967,0.39966 0.98824,0.72666 1.30795,0.72666 0.31971,0 0.66971,0.0884 0.77779,0.19651 0.10808,0.10808 0.69347,0.31644 1.30087,0.46302 0.85064,0.20529 1.18559,0.45076 1.45795,1.0685 0.20971,0.47563 0.97444,1.20397 1.87928,1.78984 1.66071,1.07529 7.10904,6.52653 7.59059,7.59463 0.16402,0.36381 0.67307,1.436121 1.13122,2.382931 0.45815,0.946809 0.8714,2.14937 0.91833,2.672359 0.0469,0.52299 0.18275,1.10852 0.30182,1.301181 0.11907,0.19266 0.21649,1.0497 0.21649,1.90455 0,1.425259 0.0842,1.64989 1.01423,2.70649 l 1.01424,1.15224 v 2.53103 c 0,2.918931 -0.27808,3.603601 -2.41185,5.938291 -0.71078,0.7777 -1.29232,1.63127 -1.29232,1.89684 0,0.89448 -1.18159,2.71347 -2.47479,3.8098 -0.70629,0.59877 -1.95644,1.70086 -2.77812,2.4491 -1.8691,1.70204 -3.21788,2.46335 -4.48021,2.52883 -0.60772,0.0315 -1.35506,0.33395 -1.95917,0.79283 -0.53717,0.408016 -1.0928,0.741866 -1.23473,0.741866 -0.14193,0 -0.30355,0.1365 -0.35916,0.30333 -0.0687,0.20622 -0.98844,0.28907 -2.87259,0.25877 -1.52432,-0.0245 -3.72116,0.1263 -4.88188,0.33514 -2.227747,0.40082 -4.055427,0.45668 -5.153097,0.1575 z m 26.392187,-7.287326 c -0.35424,-0.36704 -0.19883,-1.29248 0.33073,-1.9695 0.28457,-0.3638 0.52005,-0.91258 0.52328,-1.21952 0.003,-0.30693 0.45891,-1.08084 1.0126,-1.71979 1.19502,-1.37904 1.928206,-2.41532 2.600326,-3.67527 0.41423,-0.776511 0.47223,-1.317361 0.35915,-3.349422 -0.12635,-2.2706 -0.19195,-2.494429 -1.04065,-3.55051 -0.746436,-0.928849 -0.912966,-1.36748 -0.946566,-2.49317 -0.0224,-0.75132 -0.11875,-1.49219 -0.21405,-1.64639 -0.0953,-0.1542 -0.21767,-0.773259 -0.27194,-1.3757 -0.0543,-0.60245 -0.17426,-1.17095 -0.26666,-1.26335 -0.0924,-0.0924 -0.16799,-0.36982 -0.16799,-0.61651 0,-0.71079 -1.89956,-4.20693 -3.23041,-5.94558 -1.18003,-1.5416 -4.74213,-5.15937 -5.07998,-5.15937 -0.48325,0 -2.27294,-1.45758 -2.27294,-1.85116 0,-0.64483 -1.28285,-1.85301 -1.96754,-1.85301 -0.31485,0 -0.68557,-0.109 -0.82382,-0.24223 -0.13824,-0.13323 -0.84666,-0.41316 -1.57427,-0.62206 -1.23696,-0.35514 -1.3379,-0.4495 -1.55361,-1.45228 -0.13395,-0.62271 -0.13014,-1.49914 0.009,-2.08992 l 0.23979,-1.01746 1.86924,-0.0769 1.86924,-0.0769 0.16504,-3.07957 c 0.0986,-1.83998 0.0628,-3.2028 -0.089,-3.3857 -0.13973,-0.16836 -0.30135,-0.772 -0.35916,-1.34141 -0.0578,-0.56941 -0.16956,-1.21388 -0.24835,-1.43217 -0.40236,-1.11479 -0.9312,-3.7782 -0.81191,-4.08906 0.075,-0.19543 0.009,-0.43393 -0.14627,-0.53 -0.15545,-0.0961 -0.28263,-0.45827 -0.28263,-0.80489 0,-0.34663 -0.11906,-0.70382 -0.26458,-0.79375 -0.14552,-0.0899 -0.26458,-0.44713 -0.26458,-0.79375 0,-0.34663 -0.11907,-0.70382 -0.26459,-0.79375 -0.14552,-0.0899 -0.26458,-0.391 -0.26458,-0.66903 0,-0.27803 -0.23813,-0.92946 -0.52917,-1.44764 -0.29104,-0.51818 -0.52916,-1.16961 -0.52916,-1.44764 0,-0.27803 -0.11907,-0.57909 -0.26459,-0.66903 -0.14552,-0.0899 -0.26458,-0.37553 -0.26458,-0.63465 0,-0.52782 -2.27907,-5.11859 -3.14442,-6.33386 -0.30786,-0.43235 -0.55975,-0.86532 -0.55975,-0.96216 0,-0.62147 -2.853187,-4.22819 -5.754687,-7.2745 -2.44119,-2.56303 -2.64584,-3.16992 -1.45402,-4.31175 0.71868,-0.6885395 0.78566,-0.6988395 4.828637,-0.7425595 l 4.09986,-0.0443 1.54823,0.8253495 c 0.85152,0.45394 1.71869,0.82535 1.92704,0.82535 0.42156,0 5.39651,3.26661 7.22128,4.74157 0.64435,0.52083 2.94832,2.67337 5.11993,4.78342 3.75414,3.64772 5.794166,6.10864 9.980396,12.03951 0.80036,1.13392 1.96122,2.74502 2.57969,3.58021 0.61846,0.83519 1.12448,1.59802 1.12448,1.69518 0,0.0972 0.50142,0.91425 1.11428,1.81577 1.21814,1.79191 4.17738,7.47851 4.17738,8.02744 0,0.18836 0.23813,0.76643 0.52917,1.28461 0.29104,0.51817 0.52917,1.15283 0.52917,1.41034 0,0.25751 0.11939,0.5876 0.26532,0.73352 0.14593,0.14593 0.3004,0.73529 0.34328,1.30969 0.0429,0.5744 0.28453,1.47039 0.537,1.99108 0.25247,0.52069 0.49666,1.36607 0.54265,1.87861 0.046,0.51254 0.16461,1.06292 0.26358,1.22308 0.099,0.16015 0.19314,0.74352 0.20925,1.29639 0.0161,0.55286 0.14877,1.15696 0.29481,1.34244 0.14604,0.18548 0.26297,1.01892 0.25984,1.85209 -0.003,0.83316 0.12139,1.67317 0.27671,1.86668 0.3727,0.46436 0.37014,10.20925 -0.003,10.6825 -0.14855,0.18851 -0.28358,0.80305 -0.30005,1.36565 -0.0165,0.5626 -0.13553,1.15791 -0.26458,1.32292 -0.12905,0.165 -0.24868,0.77541 -0.26585,1.35646 -0.0172,0.58105 -0.15281,1.09699 -0.30143,1.14653 -0.14862,0.0495 -0.27022,0.23501 -0.27022,0.41215 0,0.46948 -0.62782,1.74601 -0.8599,1.74843 -0.10914,0.001 -0.19844,0.18719 -0.19844,0.41346 0,0.81927 -2.11612,3.484521 -4.97766,6.269331 -1.60744,1.56435 -3.05837,2.84427 -3.22429,2.84427 -0.16591,0 -0.82082,0.35719 -1.45534,0.79375 -0.63452,0.43656 -1.3763,0.79375 -1.6484,0.79375 -0.2721,0 -0.62195,0.12723 -0.77745,0.28273 -0.1555,0.1555 -0.87,0.31242 -1.58777,0.34872 -0.71777,0.0363 -1.44761,0.15411 -1.62186,0.2618 -0.46631,0.2882 -3.856356,0.52247 -4.087956,0.2825 z M 119.15385,81.562472 c -0.20896,-0.20896 -0.14651,-1.58549 0.0782,-1.7244 0.11373,-0.0703 0.2368,-0.52185 0.2735,-1.00348 0.0367,-0.48164 0.18178,-0.99075 0.3224,-1.13137 0.14061,-0.14062 0.25567,-0.64155 0.25567,-1.11318 0,-0.47163 0.11906,-0.93109 0.26458,-1.02103 0.37613,-0.23246 0.35398,-10.5204 -0.0235,-10.89783 -0.15842,-0.15843 -0.29338,-0.86685 -0.2999,-1.57427 -0.007,-0.70743 -0.10346,-1.40529 -0.21544,-1.55081 -0.11197,-0.14553 -0.2404,-0.62178 -0.28541,-1.05834 -0.045,-0.43656 -0.17411,-0.92318 -0.28689,-1.08137 -0.11278,-0.1582 -0.25236,-0.75351 -0.31017,-1.32292 -0.0578,-0.56941 -0.17473,-1.21389 -0.25984,-1.43217 -0.0851,-0.21828 -0.19383,-0.69453 -0.24162,-1.05833 -0.0478,-0.3638 -0.2849,-1.07818 -0.52693,-1.5875 -0.24204,-0.50932 -0.47991,-1.24896 -0.5286,-1.64364 -0.0487,-0.39468 -0.17241,-0.80148 -0.27493,-0.90399 -0.10251,-0.10252 -0.18639,-0.40106 -0.18639,-0.66342 0,-0.26236 -0.23813,-0.90098 -0.52917,-1.41916 -0.29104,-0.51817 -0.52917,-1.09625 -0.52917,-1.28461 0,-0.39913 -2.99364,-6.38033 -3.49622,-6.98535 -0.23388,-0.28155 -0.35488,-1.51162 -0.38707,-3.935189 -0.0258,-1.93909 -0.0953,-3.617601 -0.15456,-3.73002 -0.0592,-0.11243 -0.26569,-0.91879 -0.45878,-1.79191 -0.19308,-0.87313 -0.45095,-1.70061 -0.57305,-1.83886 -0.12209,-0.13824 -0.22198,-0.44922 -0.22198,-0.69105 0,-0.49706 -1.78836,-4.07109 -2.62499,-5.24603 -0.3025,-0.42483 -0.55,-0.912871 -0.55,-1.08453 0,-0.44821 -2.57645,-3.095611 -3.91139,-4.019111 -1.5834,-1.09537 -3.991656,-2.33396 -4.538046,-2.33396 -0.25201,0 -0.53843,-0.0802 -0.63649,-0.17829 -0.0981,-0.0981 -0.87988,-0.14966 -1.73738,-0.11466 -1.04541,0.0427 -1.62848,-0.0487 -1.76971,-0.27716 -0.27199,-0.44011 -0.16407,-1.85989 0.16651,-2.19047 0.14062,-0.140619 0.25567,-0.466359 0.25567,-0.723879 0,-0.512351 0.71586,-1.87566 1.8513,-3.5256805 0.93046,-1.35213 4.659546,-4.90552 5.693536,-5.42528 0.43425,-0.21828 0.99495,-0.58157 1.24601,-0.80731 0.62432,-0.56137 2.55438,-1.57394 3.00007,-1.57394 0.2001,0 0.7691,-0.22763 1.26444,-0.50585 0.49533,-0.27821004 1.2431,-0.54160004 1.66169,-0.58531004 0.41859,-0.0437 0.9019,-0.18119996 1.07402,-0.30553996 0.4084,-0.29503 10.87196,-0.29503 11.28036,0 0.17212,0.12434 0.65543,0.26183 1.07403,0.30553996 0.41859,0.0437 1.16635,0.3071 1.66169,0.58531004 0.49534,0.27822 1.0839,0.50585 1.30792,0.50585 0.22401,0 0.92645,0.35719 1.56097,0.79375 0.63453,0.43656 1.2875,0.79375 1.45106,0.79375 0.42142,0 5.47422,4.94653 6.35264,6.21903 0.96582,1.3991295 1.8536,2.9916595 1.8536,3.3250795 0,0.147181 0.21955,0.503261 0.48789,0.79129 0.66218,0.71077 2.15794,3.64847 2.15794,4.23823 0,0.26201 0.11906,0.54997 0.26458,0.63991 0.14552,0.0899 0.26459,0.391001 0.26459,0.66903 0,0.278021 0.23812,0.92946 0.52916,1.44764 0.29104,0.518171 0.52917,1.152831 0.52917,1.410341 0,0.25751 0.0999,0.581309 0.22198,0.71955 0.1221,0.13825 0.38021,0.96573 0.57358,1.83886 0.19337,0.87312 0.43911,1.70656 0.54608,1.85208 0.10697,0.14552 0.23132,0.62177 0.27632,1.05833 0.045,0.43657 0.19151,0.94415 0.32557,1.12798 0.13405,0.18382 0.25814,1.01726 0.27574,1.85208 0.0176,0.83482 0.11985,1.65381 0.22722,1.81997 0.10736,0.16616 0.24191,0.76148 0.299,1.32292 0.0571,0.56144 0.17005,1.1994 0.25103,1.41768 0.67285,1.81373 0.80089,4.13367 0.75085,13.60484 -0.0313,5.92806 -0.15679,10.15802 -0.30669,10.338619 -0.13952,0.168121 -0.23112,1.30902 -0.20354,2.53532 0.0276,1.22631 -0.0614,2.40799 -0.19774,2.625961 -0.13633,0.217959 -0.2833,0.693959 -0.32661,1.05776 -0.0433,0.3638 -0.19019,0.89958 -0.32642,1.19062 -0.13623,0.29105 -0.28241,0.809579 -0.32484,1.15231 -0.0814,0.65724 -1.91407,1.8904 -2.80947,1.8904 -0.25803,0 -0.58625,0.117109 -0.72938,0.260239 -0.3065,0.3065 -1.8679,0.40359 -2.62372,0.16315 -0.41488,-0.131969 -0.61968,0.0184 -0.94827,0.696331 -0.52721,1.087729 -1.50829,1.26196 -2.62568,0.4663 -1.15147,-0.81991 -1.70511,-0.61676 -1.77524,0.65141 -0.0316,0.5721 -0.13471,1.225449 -0.22904,1.451899 -0.0943,0.22644 -0.21181,0.801191 -0.26106,1.27722 -0.12273,1.18627 -0.2898,1.38345 -1.17217,1.38345 -0.41939,0 -0.83611,0.11907 -0.92604,0.26459 -0.0899,0.14552 -0.43034,0.26458 -0.75645,0.26458 -0.32611,0 -0.72104,0.12811 -0.87762,0.28469 -0.15657,0.15658 -0.92453,0.31073 -1.70656,0.34256 -1.39334,0.0567 -1.42073,0.0733 -1.36516,0.82405 0.0761,1.02787 -0.33745,1.46911 -1.21279,1.29405 -0.82487,-0.16498 -2.06358,0.86974 -2.20162,1.83906 -0.0653,0.45814 -0.31114,0.60556 -1.21013,0.72554 -0.62053,0.0828 -1.18607,0.0927 -1.25677,0.022 z m -68.781623,-1.96729 c -4.00474,-2.46617 -7.04277,-5.46914 -8.59367,-8.49449 -0.58844,-1.14789 -1.0699,-2.2456 -1.0699,-2.43935 0,-0.19375 -0.2589,-0.80238 -0.57534,-1.35251 -0.49129,-0.85411 -0.5685,-1.36335 -0.52848,-3.48584 0.0258,-1.36709 -0.0611,-2.61724 -0.19306,-2.77813 -0.13195,-0.16088 -0.29464,-0.59017 -0.36152,-0.95397 -0.0669,-0.36381 -0.13783,1.61591 -0.15765,4.39937 -0.0374,5.2465 -0.17359,5.88999 -1.16636,5.50903 -0.222,-0.0852 -0.48224,-0.0277 -0.57831,0.12773 -0.0961,0.15544 -0.44149,0.28262 -0.7676,0.28262 -0.32611,0 -0.73089,0.13796 -0.8995,0.30657 -0.35954,0.35954 -9.61872,0.40376 -10.17272,0.0486 -0.18819,-0.12065 -0.58029,-0.22813 -0.87133,-0.23884 -0.29104,-0.0107 -0.97565,-0.1062 -1.52136,-0.21219 -0.96417,-0.18726 -0.99218,-0.17087 -0.99218,0.58064 0,1.1501 -0.55565,1.46814 -2.22269,1.27221 -1.27168,-0.14946 -1.43489,-0.11166 -1.55848,0.36095 -0.12408,0.4745 -0.38807,0.53365 -2.61021,0.58488 -3.13045,0.0722 -4.43282,0.0149 -4.96264,-0.21819 -0.23097,-0.10161 -0.7175999,-0.22921 -1.0813999,-0.28356 -0.73665,-0.11006 -3.91714,-1.63894 -4.13173,-1.98615 -0.0755,-0.12209 -0.14486,-0.60735 -0.15423,-1.07835 -0.009,-0.471 -0.13941,-1.01049 -0.28896,-1.19887 -0.14956,-0.18838 -0.28156,-1.05159 -0.29333,-1.91823 -0.0118,-0.86665 -0.11186,-1.57572 -0.22241,-1.57572 -0.11056,0 -0.20101,1.01203 -0.20101,2.24895 0,2.20801 -0.0118,2.24896 -0.64584,2.24896 -0.77737,0 -0.93982,-0.2268 -1.05116,-1.46757 -0.097,-1.08069 -0.24718,-1.2754 -1.50174999,-1.94668 -0.87509,-0.46822 -0.90467,-0.53691 -0.98143,-2.27832 -0.0435,-0.98756 0.005,-1.98596 0.10697,-2.21868 0.10236,-0.23271 0.22694,-0.89309 0.27684,-1.46749 0.0499,-0.5744 0.21012,-1.16376 0.35605,-1.30968 0.14593,-0.14593 0.26531999,-0.53214 0.26531999,-0.85825 0,-0.32611 0.11907,-0.66651 0.26459,-0.75645 0.14552,-0.0899 0.26458,-0.44713 0.26458,-0.79375 0,-0.34663 0.0931,-0.68774 0.20677,-0.75802 0.11373,-0.0703 0.2368,-0.52186 0.2735,-1.00349 0.0367,-0.48163 0.18178,-0.99075 0.32239,-1.13136 0.14062,-0.14062 0.25469,-0.44022 0.25348,-0.66578 -0.003,-0.55472 2.05193,-4.60411 2.6767,-5.27471 0.27527,-0.29548 0.50049,-0.6678 0.50049,-0.82739 0,-1.15143 8.3361599,-10.05071 9.4147299,-10.05071 0.68606,0 2.27186,-1.82289 2.08847,-2.40072 -0.19605,-0.61769 0.6396,-4.10832 1.24824,-5.2141 0.26275,-0.47737 0.47773,-1.04945 0.47773,-1.27129 0,-0.22184 0.46152,-1.08142 1.0256,-1.91018 0.96955,-1.42448 2.09493,-2.54889 5.36974,-5.3651 1.55701,-1.33898 6.13858,-4.47611 6.53705,-4.47611 0.13897,0 0.29237,-0.0936 0.34088,-0.208 0.15712,-0.37057 1.74531,-1.3795 2.1715,-1.3795 0.22778,0 0.85272,-0.24634 1.38876,-0.54742 0.8317,-0.46713 1.43052,-0.54741 4.08346,-0.54741 1.70986,0 3.32873,0.10926 3.59749,0.2428 2.4196,1.20225 4.18014,2.56174 6.96512,5.37844 2.62639,2.65632 4.31488,4.64559 5.03598,5.93306 0.32342,0.57745 0.81223,1.36594 1.08623,1.75221 0.27401,0.38626 0.50084,0.92204 0.50408,1.19062 0.003,0.26858 0.23871,0.78598 0.52328,1.14978 0.28457,0.3638 0.52004,0.86279 0.52328,1.10887 0.003,0.24607 0.12495,0.52099 0.27047,0.61092 0.14552,0.0899 0.26458,0.391 0.26458,0.66903 0,0.27803 0.23626,0.92614 0.52501,1.44025 0.28876,0.5141 0.5529,1.30068 0.58698,1.74795 0.0341,0.44727 0.15502,0.87072 0.26874,0.941 0.11372,0.0703 0.20677,0.4114 0.20677,0.75802 0,0.34663 0.11906,0.70382 0.26458,0.79375 0.14553,0.0899 0.26459,0.43034 0.26459,0.75645 0,0.32611 0.11041,0.70604 0.24536,0.84428 0.13496,0.13825 0.29467,0.60854 0.35493,1.04511 0.0603,0.43656 0.19354,0.98341 0.29617,1.21522 0.10263,0.23181 0.21403,0.8502 0.24755,1.37418 0.0335,0.52399 0.14702,1.03878 0.25222,1.14398 0.1052,0.1052 0.19127,0.44527 0.19127,0.75571 0,0.31045 0.13607,0.70052 0.30238,0.86683 0.16631,0.16631 0.29982,0.99379 0.29669,1.83885 -0.003,0.84507 0.0954,1.66346 0.21888,1.81865 0.12352,0.15519 0.25385,0.66637 0.28963,1.13593 0.12251,1.60776 0.68339,1.88919 3.76512,1.88919 3.26275,0 3.48021,0.14258 3.24511,2.12767 -0.18797,1.58713 -0.32234,1.84108 -0.97406,1.84108 -0.27387,0 -0.57152,0.11906 -0.66146,0.26458 -0.0899,0.14552 -0.42439,0.26868 -0.74322,0.27368 -0.55054,0.009 -1.8361,0.86804 -4.99513,3.33929 -0.77297,0.60467 -2.56211,2.27155 -3.97586,3.70416 -2.16148,2.190321 -2.78241,3.021941 -3.9026,5.226861 -0.73269,1.44216 -1.33215,2.834109 -1.33215,3.09323 0,0.25913 -0.11906,0.54472 -0.26458,0.63466 -0.14552,0.0899 -0.26459,0.43431 -0.26459,0.76527 0,0.33096 -0.0861,0.68781 -0.19127,0.79301 -0.10519,0.105199 -0.21869,0.61999 -0.25222,1.14398 -0.0335,0.523989 -0.1535,1.14237 -0.26663,1.374179 -0.11313,0.23181 -0.20799,1.135851 -0.2108,2.008971 -0.005,1.57348 -0.0121,1.588009 -0.79887,1.64492 -0.43656,0.0316 -1.02905,-0.0875 -1.31664,-0.264581 z m -11.59351,-22.74544 c -0.0631,-0.32742 -0.11466,-0.0595 -0.11466,0.59531 0,0.65485 0.0516,0.92274 0.11466,0.59532 0.0631,-0.32743 0.0631,-0.86321 0,-1.19063 z m 70.077613,-21.5364 c -0.90126,-1.42652 -2.81018,-4.03439 -3.97224,-5.42668 -0.44425,-0.53227 -1.46257,-1.77398 -2.26293,-2.75935 -0.80037,-0.98538 -2.977286,-3.35737 -4.837606,-5.27109 -4.03561,-4.15145 -4.08272,-4.36325 -0.97054,-4.36325 1.14001,0 2.14633,0.11906 2.23627,0.26458 0.0899,0.14552 0.41339,0.26459 0.71878,0.26459 0.576126,0 2.765386,1.52579 4.533416,3.15955 1.63542,1.51122 4.66968,6.15819 4.66968,7.15163 0,0.27803 0.11906,0.57909 0.26458,0.66902 0.14552,0.0899 0.26458,0.44713 0.26458,0.79375 0,0.34663 0.11906,0.70382 0.26459,0.79375 0.14552,0.0899 0.26458,0.44713 0.26458,0.79375 0,0.34663 0.11073,0.69867 0.24606,0.78231 0.13534,0.0836 0.32738,0.80288 0.42677,1.59832 0.36589,2.92848 -0.51008,3.66358 -1.84599,1.54912 z"
       id="path5018" /></g></svg>
