<?xml version="1.0" encoding="UTF-8" standalone="no"?>
<!-- Created with Inkscape (http://www.inkscape.org/) -->

<svg
   width="484"
   height="512"
   viewBox="0 0 128.05833 135.46667"
   version="1.1"
   id="svg7569"
   xml:space="preserve"
   inkscape:version="1.2.2 (732a01da63, 2022-12-09)"
   sodipodi:docname="t-shirt.svg"
   xmlns:inkscape="http://www.inkscape.org/namespaces/inkscape"
   xmlns:sodipodi="http://sodipodi.sourceforge.net/DTD/sodipodi-0.dtd"
   xmlns="http://www.w3.org/2000/svg"
   xmlns:svg="http://www.w3.org/2000/svg"><sodipodi:namedview
     id="namedview7571"
     pagecolor="#ffffff"
     bordercolor="#000000"
     borderopacity="0.25"
     inkscape:showpageshadow="2"
     inkscape:pageopacity="0.0"
     inkscape:pagecheckerboard="0"
     inkscape:deskcolor="#d1d1d1"
     inkscape:document-units="mm"
     showgrid="false"
     inkscape:zoom="0.76435185"
     inkscape:cx="361.7444"
     inkscape:cy="561.25984"
     inkscape:window-width="3360"
     inkscape:window-height="1850"
     inkscape:window-x="3348"
     inkscape:window-y="-12"
     inkscape:window-maximized="1"
     inkscape:current-layer="layer1" /><defs
     id="defs7566" /><g
     inkscape:label="Слой 1"
     inkscape:groupmode="layer"
     id="layer1"><path
       style="fill:#000000;stroke-width:0.264583"
       d="m 27.022391,134.89407 c -0.50706,-0.27111 -1.16004,-0.89619 -1.45108,-1.38906 -0.51674,-0.87507 -0.53228,-1.49525 -0.66146,-26.40849 l -0.13229,-25.512365 -1.34915,1.84922 c -1.89018,2.590796 -3.27032,3.193386 -5.34008,2.331546 -1.01206,-0.42141 -15.7566805,-14.833106 -17.28443046,-16.894156 -0.9991,-1.34785 -1.07765,-3.38649 -0.17551,-4.55483 2.86868996,-3.71513 15.18633046,-17.91979 17.10639046,-19.72702 7.37139,-6.93823 16.52299,-10.8287 27.02966,-11.4907 3.09475,-0.19499 3.93817,0.0398 5.00232,1.39268 l 0.56198,0.71443 5.01764,-3.3952 5.01763,-3.3952 0.001,-4.39155 c 8e-4,-3.91703 0.0579,-4.48484 0.52736,-5.25487 0.60669,-0.99506 1.61697,-1.50922 3.78705,-1.92733 4.526072,-0.87204 5.576692,-6.36005 1.67323,-8.7402603 -1.00739,-0.61428 -3.30142,-0.67944 -4.37499,-0.12427 -1.12716,0.58287 -2.36412,2.1411003 -2.52663,3.1828503 -0.0799,0.51244 -0.20867,1.33989 -0.28606,1.83879 -0.29585,1.90696 -2.67684,3.35488 -4.60668,2.80141 -1.75775,-0.5041 -2.661,-1.8769 -2.661,-4.04421 0,-5.5283603 4.56894,-10.6543703 10.33814,-11.59860028 7.270592,-1.18996002 14.003522,4.54490998 14.003522,11.92771028 0,4.79116 -2.55289,8.93521 -6.83656,11.09759 l -1.6301,0.82288 v 2.21243 2.21243 l 5.00927,3.38148 5.00927,3.38148 0.68793,-0.81756 c 1.00191,-1.1907 2.10113,-1.46022 5.11268,-1.2536 10.40983,0.71424 19.384057,4.54363 26.733007,11.40723 1.98818,1.85686 14.77035,16.58207 17.17752,19.78869 0.43991,0.58601 0.59531,1.15327 0.59531,2.17307 0,1.20808 -0.12835,1.53961 -1.03007,2.66057 -1.74738,2.17225 -15.98124,16.143666 -16.93851,16.626206 -1.04719,0.52786 -2.59032,0.41817 -3.62142,-0.25744 -0.36727,-0.24064 -1.28547,-1.284166 -2.04044,-2.318956 l -1.37268,-1.88143 -0.13229,25.909195 c -0.14604,28.60074 -0.008,26.56055 -1.87315,27.60904 -0.97559,0.54831 -1.03018,0.54912 -37.060749,0.54912 -34.69362,0 -36.11925,-0.019 -37.00564,-0.49295 z M 95.555073,98.940671 c 0.001,-18.898226 0.0956,-29.376876 0.27101,-30.008436 0.1512,-0.54438 0.67732,-1.32846 1.19836,-1.78594 0.74417,-0.6534 1.16629,-0.81552 2.12338,-0.81552 0.657,0 1.553387,0.18557 1.991977,0.41237 0.48921,0.25298 2.15661,2.23738 4.314,5.13416 l 3.51659,4.7218 5.173,-5.20031 5.173,-5.20031 -5.71244,-6.74687 c -3.14184,-3.71078 -6.5611,-7.59041 -7.59835,-8.62139 -5.10147,-5.07065 -11.784867,-8.53879 -18.818697,-9.76539 -1.25727,-0.21925 -2.37047,-0.39864 -2.47378,-0.39864 -0.1033,0 -0.33076,0.63873 -0.50547,1.4194 -0.63494,2.83722 -2.72114,6.51561 -5.17793,9.12976 -5.59873,5.95732 -14.674862,7.99325 -22.408092,5.02652 -6.08949,-2.33614 -10.95284,-7.6505 -12.67999,-13.85589 l -0.44184,-1.5875 -1.15904,0.0828 c -1.62959,0.11642 -5.61193,1.06573 -7.58666,1.80851 -4.30574,1.61958 -8.56824,4.24314 -11.80514,7.26605 -1.69244,1.58055 -13.8885405,15.70129 -14.1207905,16.34915 -0.0409,0.11412 2.2575105,2.49155 5.1076005,5.28317 l 5.18199,5.07568 3.54069,-4.75417 c 2.1744,-2.91963 3.8484,-4.91329 4.33811,-5.16653 1.29055,-0.66737 3.01601,-0.53718 4.01438,0.30288 1.65597,1.39341 1.57182,-0.303 1.57182,31.687706 v 29.244959 h 31.48542 31.485422 l 0.002,-29.038019 z M 66.184851,49.912945 c 2.063552,-0.32908 4.700572,-1.50712 6.291122,-2.81046 1.34717,-1.10391 3.23388,-3.40458 3.23388,-3.94343 0,-0.428 -11.046322,-7.9248 -11.641672,-7.90085 -0.54905,0.0221 -11.64167,7.46449 -11.64167,7.81079 0,0.15399 0.35404,0.79456 0.78676,1.42349 2.17147,3.15613 6.53053,5.48821 10.59033,5.66578 0.3638,0.0159 1.43536,-0.0945 2.38125,-0.24532 z"
       id="path8072" /></g></svg>
